<mxfile host="app.diagrams.net" modified="2023-12-08T21:15:01.214Z" agent="Mozilla/5.0 (Windows NT 10.0; Win64; x64) AppleWebKit/537.36 (KHTML, like Gecko) Chrome/119.0.0.0 Safari/537.36" etag="MJhvW6ojY2D5zybXlnCp" version="22.1.7" type="device">
  <diagram name="Page-1" id="O0hxqcAuDiDsu5-Ck5Nj">
    <mxGraphModel dx="1434" dy="782" grid="1" gridSize="10" guides="1" tooltips="1" connect="1" arrows="1" fold="1" page="1" pageScale="1" pageWidth="827" pageHeight="1169" math="0" shadow="0">
      <root>
        <mxCell id="0" />
        <mxCell id="1" parent="0" />
        <mxCell id="hQsyacU2UMSsrNrV76OA-1" value="" style="rounded=0;whiteSpace=wrap;html=1;fillColor=none;" parent="1" vertex="1">
          <mxGeometry x="40" y="40" width="240" height="360" as="geometry" />
        </mxCell>
        <mxCell id="hQsyacU2UMSsrNrV76OA-29" value="" style="rounded=0;whiteSpace=wrap;html=1;fillColor=#E6E6E6;" parent="1" vertex="1">
          <mxGeometry x="250" y="150" width="20" height="20" as="geometry" />
        </mxCell>
        <mxCell id="hQsyacU2UMSsrNrV76OA-2" value="" style="rounded=0;whiteSpace=wrap;html=1;" parent="1" vertex="1">
          <mxGeometry x="40" y="80" width="240" height="30" as="geometry" />
        </mxCell>
        <mxCell id="hQsyacU2UMSsrNrV76OA-3" value="" style="endArrow=none;html=1;rounded=0;strokeWidth=1;" parent="1" edge="1">
          <mxGeometry width="50" height="50" relative="1" as="geometry">
            <mxPoint x="250" y="70" as="sourcePoint" />
            <mxPoint x="270" y="50" as="targetPoint" />
          </mxGeometry>
        </mxCell>
        <mxCell id="hQsyacU2UMSsrNrV76OA-4" value="" style="endArrow=none;html=1;rounded=0;strokeWidth=1;" parent="1" edge="1">
          <mxGeometry width="50" height="50" relative="1" as="geometry">
            <mxPoint x="270" y="70" as="sourcePoint" />
            <mxPoint x="250" y="50" as="targetPoint" />
          </mxGeometry>
        </mxCell>
        <mxCell id="hQsyacU2UMSsrNrV76OA-5" value="Find places:" style="text;html=1;strokeColor=none;fillColor=none;align=left;verticalAlign=middle;whiteSpace=wrap;rounded=0;" parent="1" vertex="1">
          <mxGeometry x="50" y="120" width="220" height="20" as="geometry" />
        </mxCell>
        <mxCell id="hQsyacU2UMSsrNrV76OA-7" value="" style="endArrow=none;html=1;rounded=0;" parent="1" edge="1">
          <mxGeometry width="50" height="50" relative="1" as="geometry">
            <mxPoint x="240" y="169.91" as="sourcePoint" />
            <mxPoint x="70" y="169.57999999999998" as="targetPoint" />
          </mxGeometry>
        </mxCell>
        <mxCell id="hQsyacU2UMSsrNrV76OA-8" value="" style="endArrow=none;html=1;rounded=0;strokeWidth=1;" parent="1" edge="1">
          <mxGeometry width="50" height="50" relative="1" as="geometry">
            <mxPoint x="250" y="169.91" as="sourcePoint" />
            <mxPoint x="270" y="149.91" as="targetPoint" />
          </mxGeometry>
        </mxCell>
        <mxCell id="hQsyacU2UMSsrNrV76OA-9" value="" style="endArrow=none;html=1;rounded=0;strokeWidth=1;" parent="1" edge="1">
          <mxGeometry width="50" height="50" relative="1" as="geometry">
            <mxPoint x="270" y="169.91" as="sourcePoint" />
            <mxPoint x="250" y="149.91" as="targetPoint" />
          </mxGeometry>
        </mxCell>
        <mxCell id="hQsyacU2UMSsrNrV76OA-11" value="Search" style="rounded=1;whiteSpace=wrap;html=1;fontColor=#000000;fontStyle=1;fillColor=#E6E6E6;" parent="1" vertex="1">
          <mxGeometry x="180" y="350" width="60" height="30" as="geometry" />
        </mxCell>
        <mxCell id="hQsyacU2UMSsrNrV76OA-12" value="Clear" style="rounded=1;whiteSpace=wrap;html=1;fontColor=#000000;fontStyle=1;fillColor=#E6E6E6;" parent="1" vertex="1">
          <mxGeometry x="80" y="350" width="60" height="30" as="geometry" />
        </mxCell>
        <mxCell id="hQsyacU2UMSsrNrV76OA-13" value="Set a maximum crow-fly distance:" style="text;html=1;strokeColor=none;fillColor=none;align=left;verticalAlign=middle;whiteSpace=wrap;rounded=0;" parent="1" vertex="1">
          <mxGeometry x="50" y="190" width="220" height="20" as="geometry" />
        </mxCell>
        <mxCell id="hQsyacU2UMSsrNrV76OA-14" value="" style="dashed=0;verticalLabelPosition=bottom;verticalAlign=top;align=center;shape=mxgraph.gmdl.slider2;barPos=50;strokeColor=#808080;opacity=100;strokeWidth=2;fillColor=#808080;handleSize=20;shadow=0;html=1;" parent="1" vertex="1">
          <mxGeometry x="60" y="220" width="200" height="20" as="geometry" />
        </mxCell>
        <mxCell id="hQsyacU2UMSsrNrV76OA-15" value="Add category" style="rounded=1;whiteSpace=wrap;html=1;fillColor=#E6E6E6;" parent="1" vertex="1">
          <mxGeometry x="50" y="300" width="220" height="30" as="geometry" />
        </mxCell>
        <mxCell id="hQsyacU2UMSsrNrV76OA-16" value="castle" style="rounded=1;whiteSpace=wrap;html=1;align=left;spacingLeft=2;fillColor=#E6E6E6;" parent="1" vertex="1">
          <mxGeometry x="50" y="270" width="60" height="20" as="geometry" />
        </mxCell>
        <mxCell id="hQsyacU2UMSsrNrV76OA-17" value="" style="verticalLabelPosition=bottom;verticalAlign=top;html=1;shadow=0;dashed=0;strokeWidth=1;shape=mxgraph.ios.iDeleteApp;fillColor=#cccccc;fillColor2=#000000;strokeColor=#ffffff;sketch=0;" parent="1" vertex="1">
          <mxGeometry x="92" y="272.5" width="15" height="15" as="geometry" />
        </mxCell>
        <mxCell id="hQsyacU2UMSsrNrV76OA-18" value="museum" style="rounded=1;whiteSpace=wrap;html=1;align=left;spacingLeft=2;fillColor=#E6E6E6;" parent="1" vertex="1">
          <mxGeometry x="120" y="270" width="70" height="20" as="geometry" />
        </mxCell>
        <mxCell id="hQsyacU2UMSsrNrV76OA-19" value="" style="verticalLabelPosition=bottom;verticalAlign=top;html=1;shadow=0;dashed=0;strokeWidth=1;shape=mxgraph.ios.iDeleteApp;fillColor=#cccccc;fillColor2=#000000;strokeColor=#ffffff;sketch=0;" parent="1" vertex="1">
          <mxGeometry x="172" y="272.5" width="15" height="15" as="geometry" />
        </mxCell>
        <mxCell id="hQsyacU2UMSsrNrV76OA-20" value="statue" style="rounded=1;whiteSpace=wrap;html=1;align=left;spacingLeft=2;fillColor=#E6E6E6;" parent="1" vertex="1">
          <mxGeometry x="200" y="270" width="60" height="20" as="geometry" />
        </mxCell>
        <mxCell id="hQsyacU2UMSsrNrV76OA-21" value="" style="verticalLabelPosition=bottom;verticalAlign=top;html=1;shadow=0;dashed=0;strokeWidth=1;shape=mxgraph.ios.iDeleteApp;fillColor=#cccccc;fillColor2=#000000;strokeColor=#ffffff;sketch=0;" parent="1" vertex="1">
          <mxGeometry x="242" y="272.5" width="15" height="15" as="geometry" />
        </mxCell>
        <mxCell id="hQsyacU2UMSsrNrV76OA-23" value="0" style="text;html=1;strokeColor=none;fillColor=none;align=center;verticalAlign=middle;whiteSpace=wrap;rounded=0;fontColor=#000000;" parent="1" vertex="1">
          <mxGeometry x="50" y="230" width="20" height="20" as="geometry" />
        </mxCell>
        <mxCell id="hQsyacU2UMSsrNrV76OA-24" value="15" style="text;html=1;strokeColor=none;fillColor=none;align=center;verticalAlign=middle;whiteSpace=wrap;rounded=0;fontColor=#000000;" parent="1" vertex="1">
          <mxGeometry x="250" y="230.09" width="20" height="20" as="geometry" />
        </mxCell>
        <mxCell id="hQsyacU2UMSsrNrV76OA-25" value="P" style="text;html=1;strokeColor=none;fillColor=none;align=center;verticalAlign=middle;whiteSpace=wrap;rounded=0;fontStyle=1;fontSize=20;" parent="1" vertex="1">
          <mxGeometry x="100" y="80" width="60" height="30" as="geometry" />
        </mxCell>
        <mxCell id="hQsyacU2UMSsrNrV76OA-26" value="R" style="text;html=1;strokeColor=none;fillColor=none;align=center;verticalAlign=middle;whiteSpace=wrap;rounded=0;fontStyle=0;fontSize=20;fontColor=#808080;" parent="1" vertex="1">
          <mxGeometry x="40" y="80" width="60" height="30" as="geometry" />
        </mxCell>
        <mxCell id="hQsyacU2UMSsrNrV76OA-27" value="D" style="text;html=1;strokeColor=none;fillColor=none;align=center;verticalAlign=middle;whiteSpace=wrap;rounded=0;fontStyle=0;fontSize=20;fontColor=#808080;" parent="1" vertex="1">
          <mxGeometry x="160" y="80" width="60" height="30" as="geometry" />
        </mxCell>
        <mxCell id="hQsyacU2UMSsrNrV76OA-28" value="F" style="text;html=1;strokeColor=none;fillColor=none;align=center;verticalAlign=middle;whiteSpace=wrap;rounded=0;fontStyle=0;fontSize=20;fontColor=#808080;" parent="1" vertex="1">
          <mxGeometry x="220" y="80" width="60" height="30" as="geometry" />
        </mxCell>
        <mxCell id="hQsyacU2UMSsrNrV76OA-31" value="" style="rounded=0;whiteSpace=wrap;html=1;fillColor=#E6E6E6;" parent="1" vertex="1">
          <mxGeometry x="280" y="40" width="160" height="360" as="geometry" />
        </mxCell>
        <mxCell id="hQsyacU2UMSsrNrV76OA-33" value="" style="ellipse;whiteSpace=wrap;html=1;aspect=fixed;fillColor=#333333;" parent="1" vertex="1">
          <mxGeometry x="50" y="150" width="20" height="20" as="geometry" />
        </mxCell>
        <mxCell id="hQsyacU2UMSsrNrV76OA-34" value="Center point" style="text;html=1;strokeColor=none;fillColor=none;align=left;verticalAlign=middle;whiteSpace=wrap;rounded=0;fontColor=#000000;spacingLeft=2;" parent="1" vertex="1">
          <mxGeometry x="70" y="150" width="170" height="20" as="geometry" />
        </mxCell>
        <mxCell id="hQsyacU2UMSsrNrV76OA-36" value="" style="ellipse;whiteSpace=wrap;html=1;aspect=fixed;fillColor=#d5e8d4;strokeColor=#82b366;" parent="1" vertex="1">
          <mxGeometry x="300.05" y="170.09" width="119.91" height="119.91" as="geometry" />
        </mxCell>
        <mxCell id="hQsyacU2UMSsrNrV76OA-35" value="" style="ellipse;whiteSpace=wrap;html=1;aspect=fixed;fillColor=#333333;" parent="1" vertex="1">
          <mxGeometry x="350" y="220" width="20" height="20" as="geometry" />
        </mxCell>
      </root>
    </mxGraphModel>
  </diagram>
</mxfile>
